<svg preserveAspectRatio="none" width="100%" height="100%" overflow="visible" style="display: block;" viewBox="0 0 45 55" fill="none" xmlns="http://www.w3.org/2000/svg">
<g id="Group 1171280719" opacity="0.4">
<path id="Vector" d="M21.7891 0.589905C22.2416 0.388798 22.7584 0.388798 23.2109 0.589905L43.7109 9.70026C44.3429 9.98114 44.75 10.6083 44.75 11.2999V25.0001C44.75 38.6006 35.452 51.3206 22.9102 54.6378C22.6418 54.7087 22.3582 54.7087 22.0898 54.6378C9.54803 51.3206 0.250001 38.6006 0.25 25.0001V11.2999C0.25 10.6083 0.657101 9.98114 1.28906 9.70026L21.7891 0.589905ZM22.75 8.55182C22.7498 6.924 21.0746 5.83544 19.5869 6.49615L6.08691 12.4942C5.27427 12.8552 4.75005 13.6606 4.75 14.5499V25.5001C4.75 26.7427 5.75736 27.7501 7 27.7501H20.5C21.4665 27.7501 22.25 28.5336 22.25 29.5001V47.1133C22.25 48.6158 23.7219 49.7321 25.1367 49.0899C32.5724 45.715 38.0831 38.2611 39.8652 29.7676C40.148 28.4187 39.0766 27.2249 37.7266 27.2247H24.5C23.5335 27.2247 22.75 26.4412 22.75 25.4747V8.55182Z" fill="var(--fill-0, white)" fill-opacity="0.25" stroke="url(#paint0_linear_0_19)" stroke-width="0.5"/>
</g>
<defs>
<linearGradient id="paint0_linear_0_19" x1="22.5" y1="6.10352e-05" x2="22.5" y2="55.0001" gradientUnits="userSpaceOnUse">
<stop stop-color="white"/>
<stop offset="1" stop-color="white" stop-opacity="0.21"/>
</linearGradient>
</defs>
</svg>
