<svg width="20" height="20" viewBox="0 0 20 20" fill="none" xmlns="http://www.w3.org/2000/svg">
<g clip-path="url(#clip0_78_114691)">
<path d="M0 9.99C0 7.34049 1.05252 4.79949 2.926 2.926C4.79949 1.05252 7.34049 0 9.99 0C12.6395 0 15.1805 1.05252 17.054 2.926C18.9275 4.79949 19.98 7.34049 19.98 9.99C19.98 12.6395 18.9275 15.1805 17.054 17.054C15.1805 18.9275 12.6395 19.98 9.99 19.98C7.34049 19.98 4.79949 18.9275 2.926 17.054C1.05252 15.1805 0 12.6395 0 9.99ZM9.36562 1.3449C8.52896 1.59965 7.69854 2.36888 7.00923 3.66133C6.78225 4.09108 6.58692 4.53682 6.42482 4.995H9.36562V1.3449ZM5.10739 4.995C5.31573 4.33176 5.5832 3.68857 5.90659 3.07317C6.12392 2.66573 6.37321 2.27615 6.65209 1.90809C5.10507 2.55003 3.77399 3.62114 2.81593 4.995H5.10739ZM4.38061 9.36562C4.41808 8.27047 4.55294 7.22027 4.77022 6.24375H2.09041C1.62593 7.2245 1.34814 8.28317 1.27123 9.36562H4.38061ZM6.05269 6.24375C5.80708 7.26748 5.66567 8.31343 5.63061 9.36562H9.36562V6.24375H6.05269ZM10.6144 6.24375V9.36562H14.3481C14.3135 8.31347 14.1725 7.26752 13.9273 6.24375H10.6144ZM5.63186 10.6144C5.66651 11.6665 5.8075 12.7125 6.05269 13.7362H9.36562V10.6144H5.63186ZM10.6144 10.6144V13.7362H13.9273C14.1608 12.781 14.3094 11.7283 14.3494 10.6144H10.6144ZM6.42482 14.985C6.59798 15.4678 6.79278 15.9124 7.00923 16.3187C7.69854 17.6111 8.53021 18.3791 9.36562 18.6351V14.985H6.42482ZM6.65209 18.0719C6.37321 17.7038 6.12392 17.3143 5.90659 16.9068C5.5832 16.2914 5.31573 15.6482 5.10739 14.985H2.81593C3.77244 16.3603 5.10399 17.4318 6.65209 18.0719ZM4.77022 13.7362C4.54474 12.7098 4.41432 11.6648 4.38061 10.6144H1.27123C1.34865 11.7258 1.63461 12.7785 2.09041 13.7362H4.77022ZM13.3279 18.0719C14.876 17.4318 16.2076 16.3603 17.1641 14.985H14.8726C14.6643 15.6482 14.3968 16.2914 14.0734 16.9068C13.8561 17.3143 13.6068 17.7038 13.3279 18.0719ZM10.6144 14.985V18.6351C11.451 18.3804 12.2815 17.6111 12.9708 16.3187C13.1872 15.9132 13.382 15.4687 13.5552 14.985H10.6144ZM15.2098 13.7362H17.8896C18.3454 12.7785 18.6313 11.7258 18.7088 10.6144H15.5994C15.5657 11.6648 15.4353 12.7098 15.2098 13.7362ZM18.7088 9.36562C18.6319 8.28317 18.3541 7.2245 17.8896 6.24375H15.2098C15.4271 7.22027 15.5619 8.27047 15.5994 9.36562H18.7088ZM14.0734 3.07317C14.3819 3.65259 14.6503 4.29695 14.8726 4.995H17.1641C16.2076 3.6197 14.876 2.54821 13.3279 1.90809C13.6001 2.26273 13.8499 2.65484 14.0734 3.07317ZM13.5552 4.995C13.3931 4.53682 13.1978 4.09108 12.9708 3.66133C12.2815 2.36888 11.451 1.6009 10.6144 1.3449V4.995H13.5552Z" fill="white"/>
</g>
<defs>
<clipPath id="clip0_78_114691">
<rect width="19.98" height="19.98" fill="white"/>
</clipPath>
</defs>
</svg>
