<svg width="39" height="39" viewBox="0 0 39 39" fill="none" xmlns="http://www.w3.org/2000/svg">
<g filter="url(#filter0_d_1192_4689)">
<path d="M21.8356 11.963C21.6687 11.9586 21.5018 11.9678 21.3367 11.9902C20.903 12.0493 20.4959 12.197 20.078 12.3192C19.6602 12.4414 19.2455 12.5364 18.9365 12.5364C18.7396 12.5364 18.3832 12.5318 18.0236 12.5352C17.6646 12.5387 17.3208 12.5434 17.0169 12.5943C16.4813 12.6835 16.0172 12.899 15.6918 13.2263C15.3658 13.5541 15.1929 13.9654 15.1131 14.3929L15.1119 14.401L14.7307 16.6114C12.7402 16.7145 11.2986 17.8336 10.5167 19.3356C10.3558 19.6389 10.2824 19.9749 10.3036 20.3115C10.3247 20.6482 10.4398 20.9742 10.6376 21.2587C11.0175 21.7927 11.6449 22.1548 12.366 22.2978C17.5411 23.322 21.9742 23.0086 26.7973 22.3824H26.8131V22.3813L26.8416 22.3789L26.8568 22.3778L26.8695 22.3755C26.9315 22.3661 26.9917 22.3483 27.048 22.3228C27.866 22.1664 28.477 21.8524 28.8302 21.4267C29.212 20.9656 29.3 20.4489 29.3 20.0562C29.3 18.0867 27.6425 15.7118 24.5865 14.9577L24.2155 13.6404L24.2117 13.6289C23.9198 12.6737 22.9771 11.9937 21.8362 11.963H21.8356ZM21.8204 13.1122C22.4706 13.1041 22.8283 13.4105 22.9916 13.9405L22.9923 13.9417L23.431 15.4946L23.4323 15.4981C23.4387 15.5506 23.453 15.602 23.4747 15.651L23.5785 16.0177L23.5912 16.0652C23.6621 16.298 23.4367 16.7603 23.1385 16.9201C22.9562 17.0174 22.2515 17.2625 21.4316 17.4386C20.6643 17.6031 19.7647 17.727 18.9435 17.7415C18.1559 17.2231 17.2271 16.7991 16.0071 16.6502L16.3616 14.5887C16.4142 14.3101 16.5054 14.1293 16.6276 14.006C16.7504 13.8832 16.9175 13.7882 17.2448 13.7337C17.3512 13.7157 17.7007 13.6972 18.0375 13.6937C18.3743 13.6903 18.7168 13.6949 18.9365 13.6949C19.4937 13.6949 20.0103 13.5559 20.4636 13.4232C20.9169 13.2906 21.3234 13.1626 21.5234 13.1348C21.6285 13.1205 21.7275 13.1129 21.8204 13.1122ZM24.9644 16.2957C27.0107 17.0893 28.0338 18.8386 28.0338 20.0562C28.0338 20.2937 27.9831 20.5317 27.8211 20.7275C27.6615 20.9198 27.3589 21.1208 26.6833 21.2251C24.7701 21.3479 23.5482 21.0397 22.5808 20.5259C23.3785 20.3713 24.092 20.1378 24.5649 19.8859L24.5662 19.8847C25.2937 19.4955 25.6596 18.7025 25.4336 17.9576L24.9644 16.2957ZM24.0641 17.7392L24.2098 18.2576L24.2129 18.268C24.2857 18.5073 24.1813 18.7488 23.9274 18.8844C23.5019 19.1114 22.2528 19.4868 21.1575 19.5337C21.0418 19.4371 20.9272 19.3394 20.8137 19.2406C20.651 19.0993 20.475 18.951 20.3072 18.805C20.7823 18.7459 21.2541 18.6663 21.721 18.5663C22.6162 18.374 23.3183 18.1649 23.7761 17.9205H23.7773C23.8786 17.8664 23.9742 17.806 24.0641 17.7392ZM15.0232 17.7496C16.5212 17.7496 17.4696 18.1389 18.2933 18.7112C18.3475 18.7671 18.4131 18.813 18.4864 18.8461C18.9739 19.2093 19.4285 19.6339 19.9394 20.0788C20.0977 20.2178 20.2642 20.3554 20.4389 20.4918C20.4949 20.5536 20.5643 20.6041 20.6428 20.64L20.6466 20.6424C21.1339 21.0082 21.6599 21.3288 22.2167 21.5993C19.1081 21.8148 16.0274 21.8379 12.6339 21.166C12.2021 21.0809 11.8659 20.8631 11.6987 20.6273C11.5316 20.3927 11.4879 20.1639 11.6595 19.8349C12.3344 18.5368 13.3505 17.7496 15.0232 17.7496Z" fill="white"/>
</g>
<defs>
<filter id="filter0_d_1192_4689" x="-6.62881" y="-6.62888" width="52.0833" height="52.0833" filterUnits="userSpaceOnUse" color-interpolation-filters="sRGB">
<feFlood flood-opacity="0" result="BackgroundImageFix"/>
<feColorMatrix in="SourceAlpha" type="matrix" values="0 0 0 0 0 0 0 0 0 0 0 0 0 0 0 0 0 0 127 0" result="hardAlpha"/>
<feOffset/>
<feGaussianBlur stdDeviation="4.73485"/>
<feComposite in2="hardAlpha" operator="out"/>
<feColorMatrix type="matrix" values="0 0 0 0 0.592157 0 0 0 0 0.278431 0 0 0 0 1 0 0 0 0.2 0"/>
<feBlend mode="normal" in2="BackgroundImageFix" result="effect1_dropShadow_1192_4689"/>
<feBlend mode="normal" in="SourceGraphic" in2="effect1_dropShadow_1192_4689" result="shape"/>
</filter>
</defs>
</svg>
