<svg width="38" height="38" viewBox="0 0 38 38" fill="none" xmlns="http://www.w3.org/2000/svg">
<g filter="url(#filter0_d_1192_2995)">
<path d="M20.5669 10.2859C20.477 10.2816 20.3873 10.2958 20.3031 10.3274C20.2188 10.359 20.1419 10.4074 20.0768 10.4697C20.0118 10.5321 19.96 10.607 19.9246 10.6901C19.8892 10.7731 19.871 10.8624 19.871 10.9528V17.62C19.871 17.7971 19.941 17.9669 20.0657 18.0921C20.1903 18.2172 20.3594 18.2876 20.5356 18.2876H27.1738C27.2638 18.2877 27.3528 18.2694 27.4355 18.2339C27.5183 18.1984 27.593 18.1464 27.6551 18.0811C27.7173 18.0157 27.7656 17.9384 27.7971 17.8538C27.8286 17.7691 27.8426 17.6789 27.8384 17.5887C27.6536 13.6396 24.498 10.4708 20.5662 10.2859M21.2002 16.9525V11.691C22.5136 11.9029 23.7269 12.5254 24.6674 13.4701C25.608 14.4148 26.2278 15.6334 26.4387 16.9525H21.2002ZM18.5418 12.9553C18.5419 12.865 18.5237 12.7755 18.4884 12.6924C18.453 12.6093 18.4013 12.5343 18.3362 12.4719C18.2711 12.4095 18.1941 12.361 18.1099 12.3293C18.0256 12.2977 17.9358 12.2836 17.8459 12.2878C13.7931 12.4801 10.5664 15.8397 10.5664 19.9564C10.5664 24.1959 13.9885 27.633 18.2095 27.633C22.3088 27.633 25.6538 24.3921 25.8439 20.3215C25.8481 20.2313 25.8341 20.1412 25.8026 20.0566C25.7712 19.972 25.7229 19.8947 25.6609 19.8293C25.5988 19.764 25.5242 19.712 25.4415 19.6765C25.3588 19.6409 25.2699 19.6226 25.1799 19.6226H20.2033C19.7626 19.6226 19.34 19.4468 19.0284 19.1338C18.7168 18.8209 18.5418 18.3964 18.5418 17.9538V12.9553ZM11.8956 19.9564C11.8956 16.795 14.1992 14.1736 17.2125 13.6936V17.9538C17.2125 18.3483 17.2899 18.7389 17.4402 19.1033C17.5905 19.4678 17.8108 19.7989 18.0885 20.0779C18.6494 20.6412 19.4101 20.9577 20.2033 20.9577H24.4449C23.967 23.9843 21.3571 26.2979 18.2095 26.2979C16.5349 26.2979 14.929 25.6298 13.7449 24.4405C12.5608 23.2513 11.8956 21.6383 11.8956 19.9564Z" fill="white"/>
</g>
<defs>
<filter id="filter0_d_1192_2995" x="-6.64816" y="-6.64841" width="51.2924" height="51.2924" filterUnits="userSpaceOnUse" color-interpolation-filters="sRGB">
<feFlood flood-opacity="0" result="BackgroundImageFix"/>
<feColorMatrix in="SourceAlpha" type="matrix" values="0 0 0 0 0 0 0 0 0 0 0 0 0 0 0 0 0 0 127 0" result="hardAlpha"/>
<feOffset/>
<feGaussianBlur stdDeviation="4.74889"/>
<feComposite in2="hardAlpha" operator="out"/>
<feColorMatrix type="matrix" values="0 0 0 0 0.592157 0 0 0 0 0.278431 0 0 0 0 1 0 0 0 0.2 0"/>
<feBlend mode="normal" in2="BackgroundImageFix" result="effect1_dropShadow_1192_2995"/>
<feBlend mode="normal" in="SourceGraphic" in2="effect1_dropShadow_1192_2995" result="shape"/>
</filter>
</defs>
</svg>
